<?xml version="1.0" encoding="utf-8"?>
<!-- Generator: Adobe Illustrator 22.1.0, SVG Export Plug-In . SVG Version: 6.00 Build 0)  -->
<svg version="1.1" id="Layer_1" xmlns="http://www.w3.org/2000/svg" xmlns:xlink="http://www.w3.org/1999/xlink" x="0px" y="0px"
	 viewBox="0 0 176 110" enable-background="new 0 0 176 110" xml:space="preserve">
<g id="sun">
	<circle fill="none" stroke="#231F20" stroke-miterlimit="10" cx="87" cy="32" r="12"/>
	<g>
		<line fill="none" stroke="#000000" stroke-linecap="round" stroke-miterlimit="10" x1="87" y1="16" x2="87" y2="6"/>
		<line fill="none" stroke="#000000" stroke-linecap="round" stroke-miterlimit="10" x1="103" y1="32" x2="113" y2="32"/>
		<line fill="none" stroke="#000000" stroke-linecap="round" stroke-miterlimit="10" x1="60" y1="32" x2="71" y2="32"/>
		<line fill="none" stroke="#000000" stroke-linecap="round" stroke-miterlimit="10" x1="98" y1="21" x2="106" y2="13"/>
		<line fill="none" stroke="#000000" stroke-linecap="round" stroke-miterlimit="10" x1="68" y1="13" x2="76" y2="21"/>
		<line fill="none" stroke="#000000" stroke-linecap="round" stroke-miterlimit="10" x1="87" y1="58" x2="87" y2="48"/>
		<line fill="none" stroke="#000000" stroke-linecap="round" stroke-miterlimit="10" x1="68" y1="51" x2="76" y2="43"/>
		<line fill="none" stroke="#000000" stroke-linecap="round" stroke-miterlimit="10" x1="98" y1="43" x2="106" y2="51"/>
	</g>
</g>
<g id="clouds">
	<path fill="none" stroke="#000000" stroke-miterlimit="10" d="M127.4,38H97c-9.4,0-17,7.6-17,17s7.6,17,17,17h30.4
		c9.4,0,17-7.6,17-17S136.8,38,127.4,38z"/>
	<path fill="none" stroke="#000000" stroke-miterlimit="10" d="M65.3,67H51.7c-4.2,0-7.7,3.4-7.7,7.6s3.4,7.6,7.7,7.6h13.7
		c4.2,0,7.7-3.4,7.7-7.6C73,70.4,69.6,67,65.3,67z"/>
	<path fill="none" stroke="#000000" stroke-miterlimit="10" d="M84.7,23H54.1C44.7,23,37,32.2,37,43.5S44.7,64,54.1,64h30.6
		c9.4,0,17.1-9.2,17.1-20.5S94.1,23,84.7,23z"/>
</g>
<g id="rain">
	<line fill="none" stroke="#000000" stroke-linecap="round" stroke-miterlimit="10" x1="91" y1="75" x2="87" y2="81"/>
	<line fill="none" stroke="#000000" stroke-linecap="round" stroke-miterlimit="10" x1="101" y1="75" x2="97" y2="81"/>
	<line fill="none" stroke="#000000" stroke-linecap="round" stroke-miterlimit="10" x1="111" y1="75" x2="107" y2="81"/>
	<line fill="none" stroke="#000000" stroke-linecap="round" stroke-miterlimit="10" x1="121" y1="75" x2="117" y2="81"/>
	<line fill="none" stroke="#000000" stroke-linecap="round" stroke-miterlimit="10" x1="131" y1="75" x2="127" y2="81"/>
	<line fill="none" stroke="#000000" stroke-linecap="round" stroke-miterlimit="10" x1="141" y1="75" x2="137" y2="81"/>
	<line fill="none" stroke="#000000" stroke-linecap="round" stroke-miterlimit="10" x1="91" y1="87" x2="87" y2="93"/>
	<line fill="none" stroke="#000000" stroke-linecap="round" stroke-miterlimit="10" x1="81" y1="87" x2="77" y2="93"/>
	<line fill="none" stroke="#000000" stroke-linecap="round" stroke-miterlimit="10" x1="101" y1="87" x2="97" y2="93"/>
	<line fill="none" stroke="#000000" stroke-linecap="round" stroke-miterlimit="10" x1="111" y1="87" x2="107" y2="93"/>
	<line fill="none" stroke="#000000" stroke-linecap="round" stroke-miterlimit="10" x1="121" y1="87" x2="117" y2="93"/>
	<line fill="none" stroke="#000000" stroke-linecap="round" stroke-miterlimit="10" x1="131" y1="87" x2="127" y2="93"/>
	<line fill="none" stroke="#000000" stroke-linecap="round" stroke-miterlimit="10" x1="91" y1="99" x2="87" y2="105"/>
	<line fill="none" stroke="#000000" stroke-linecap="round" stroke-miterlimit="10" x1="101" y1="99" x2="97" y2="105"/>
	<line fill="none" stroke="#000000" stroke-linecap="round" stroke-miterlimit="10" x1="111" y1="99" x2="107" y2="105"/>
	<line fill="none" stroke="#000000" stroke-linecap="round" stroke-miterlimit="10" x1="71" y1="99" x2="67" y2="105"/>
	<line fill="none" stroke="#000000" stroke-linecap="round" stroke-miterlimit="10" x1="81" y1="99" x2="77" y2="105"/>
	<line fill="none" stroke="#000000" stroke-linecap="round" stroke-miterlimit="10" x1="121" y1="99" x2="117" y2="105"/>
	<line fill="none" stroke="#000000" stroke-linecap="round" stroke-miterlimit="10" x1="91" y1="111" x2="87" y2="117"/>
	<line fill="none" stroke="#000000" stroke-linecap="round" stroke-miterlimit="10" x1="101" y1="111" x2="97" y2="117"/>
	<line fill="none" stroke="#000000" stroke-linecap="round" stroke-miterlimit="10" x1="111" y1="111" x2="107" y2="117"/>
	<line fill="none" stroke="#000000" stroke-linecap="round" stroke-miterlimit="10" x1="61" y1="111" x2="57" y2="117"/>
	<line fill="none" stroke="#000000" stroke-linecap="round" stroke-miterlimit="10" x1="71" y1="111" x2="67" y2="117"/>
	<line fill="none" stroke="#000000" stroke-linecap="round" stroke-miterlimit="10" x1="81" y1="111" x2="77" y2="117"/>
</g>
</svg>
